# AST/ASF file generated using VICON BodyLanguage
# -----------------------------------------------
:version 1.10
:name VICON
:units
  mass 1.0
  length 0.45
  angle deg
:documentation
   .ast/.asf automatically generated from VICON data using
   VICON BodyBuilder and BodyLanguage model FoxedUp or BRILLIANT.MOD
:root
   order TX TY TZ RX RY RZ
   axis XYZ
   position 0 0 0  
   orientation 0 0 0 
:bonedata
  begin
     id 1 
     name lhipjoint
     direction 0.671379 -0.66392 0.329334 
     length 2.38647 
     axis 0 0 0  XYZ
  end
  begin
     id 2 
     name lfemur
     direction 0.34202 -0.939693 0  
     length 6.48179  
     axis 0 0 20  XYZ
    dof rx ry rz
    limits (-160.0 20.0)
           (-70.0 70.0)
           (-60.0 70.0)
  end
  begin
     id 3 
     name ltibia
     direction 0.34202 -0.939693 0   
     length 6.86524   
     axis 0 0 20   XYZ
    dof rx
    limits (-10.0 170.0)
  end
  begin
     id 4 
     name lfoot
     direction 0.204886 -0.562919 0.800715   
     length 1.73031   
     axis -90 7.62852e-016 20   XYZ
    dof rx rz
    limits (-45.0 90.0)
           (-70.0 20.0)
  end
  begin
     id 5 
     name ltoes
     direction 1.53548e-011 -4.21841e-011 1   
     length 0.828161   
     axis -90 7.62852e-016 20   XYZ
    dof rx
    limits (-90.0 20.0)
  end
  begin
     id 6 
     name rhipjoint
     direction -0.662732 -0.670855 0.332775   
     length 2.3618  
     axis 0 0 0  XYZ 
  end
  begin
     id 7 
     name rfemur
     direction -0.34202 -0.939693 0   
     length 6.3025   
     axis 0 0 -20   XYZ
    dof rx ry rz
    limits (-160.0 20.0)
           (-70.0 70.0)
           (-70.0 60.0)
  end
  begin
     id 8 
     name rtibia
     direction -0.34202 -0.939693 0   
     length 6.8732   
     axis 0 0 -20   XYZ
    dof rx
    limits (-10.0 170.0)
 end
 begin
     id 9 
     name rfoot
     direction -0.173856 -0.477665 0.861168   
     length 1.54784  
     axis -90 -7.62852e-016 -20   XYZ
    dof rx rz
    limits (-45.0 90.0)
           (-20.0 70.0)
  end
  begin
     id 10 
     name rtoes
     direction -1.53562e-011 -4.21802e-011 1   
     length 0.759618   
     axis -90 -7.62852e-016 -20   XYZ
    dof rx
    limits (-90.0 20.0)
  end
  begin
     id 11 
     name lowerback
     direction -0.0278357 0.999497 -0.0151789   
     length 1.97203   
     axis 0 0 0   XYZ
    dof rx ry rz
    limits (-20.0 45.0)
           (-30.0 30.0)
           (-30.0 30.0)
  end
  begin
     id 12 
     name upperback
     direction -0.00360622 0.997542 0.0699804   
     length 1.94709   
     axis 0 0 0   XYZ
    dof rx ry rz
    limits (-20.0 45.0)
           (-30.0 30.0)
           (-30.0 30.0)
  end
  begin
     id 13 
     name thorax
     direction 0.00907706 0.997048 0.0762461   
     length 1.95722   
     axis 0 0 0   XYZ
    dof rx ry rz
    limits (-20.0 45.0)
           (-30.0 30.0)
           (-30.0 30.0)
  end
  begin
     id 14 
     name lowerneck
     direction -0.0481835 0.99872 -0.0153927   
     length 1.63078   
     axis 0 0 0   XYZ
    dof rx ry rz
    limits (-20.0 45.0)
           (-30.0 30.0)
           (-30.0 30.0)
  end
  begin
     id 15 
     name upperneck
     direction 0.0859716 0.979226 -0.183644   
     length 1.62591   
     axis 0 0 0   XYZ
    dof rx ry rz
    limits (-20.0 45.0)
           (-30.0 30.0)
           (-30.0 30.0)
  end
  begin
     id 16
     name head
     direction 0.0324821 0.997629 -0.0606773  
     length 1.64811  
     axis 0 0 0   XYZ
    dof rx ry rz
    limits (-20.0 45.0)
           (-30.0 30.0)
           (-30.0 30.0)
  end
  begin
     id 17 
     name lclavicle
     direction 0.939609 0.311019 0.142835  
     length 3.70647  
     axis 0 0 0   XYZ
    dof ry rz
    limits (-20.0 10.0)
           (0.0 20.0)
  end
  begin
     id 18 
     name lhumerus
     direction 1 -4.48963e-011 -1.59838e-027   
     length 4.59207   
     axis 180 -30 -90   XYZ
    dof rx ry rz
    limits (-60.0 90.0)
           (-90.0 90.0)
           (-90.0 90.0)
  end
  begin
     id 19
     name lradius
     direction 1 -4.48957e-011 -1.3483e-026   
     length 2.98109   
     axis 180 -30 -90   XYZ
    dof rx
    limits (-10.0 170.0)
  end
  begin
     id 20
     name lwrist
     direction 1 -4.48954e-011 -3.11579e-026   
     length 1.49055   
     axis 2.00652e-014 90 90   XYZ
    dof ry
    limits (-180.0 0.0)
 end
  begin
     id 21 
     name lhand
     direction 1 -4.4911e-011 -6.23158e-026   
     length 0.480203   
     axis 3.97628e-014 90 90   XYZ
    dof rx rz
    limits (-90.0 90.0)
           (-45.0 45.0)
  end
  begin
     id 22 
     name lfingers
     direction 1 -4.48893e-011 -1.24632e-025   
     length 0.387152   
     axis 7.95256e-014 90 90   XYZ
    dof rx
    limits (0.0 90.0)
  end
  begin
     id 23
     name lthumb
     direction 0.707107 -6.35013e-011 0.707107   
     length 0.555875   
     axis -90 45 2.85299e-015   XYZ
    dof rx rz
    limits (-45.0 45.0)
           (-45.0 45.0)
  end
  begin
     id 24 
     name rclavicle
     direction -0.950396 0.30392 0.0661859   
     length 3.70894  
     axis 0 0 0   XYZ 
    dof ry rz
    limits (-10.0 20.0)
           (-20.0 0.0)
  end
  begin
     id 25 
     name rhumerus
     direction -1 -4.48957e-011 -2.96677e-027  
     length 4.76508   
     axis 180 30 90   XYZ
    dof rx ry rz
    limits (-90.0 60.0)
           (-90.0 90.0)
           (-90.0 90.0)
  end
  begin
     id 26 
     name rradius
     direction -1 -4.48974e-011 -1.44501e-026   
     length 2.78902   
     axis 180 30 90   XYZ
    dof rx
    limits (-10.0 170.0)
  end
  begin
     id 27 
     name rwrist
     direction -1 -4.48978e-011 -3.11579e-026   
     length 1.39451   
     axis 2.00652e-014 -90 -90   XYZ
    dof ry
    limits (-180.0 0.0)
  end
  begin
     id 28
     name rhand
     direction -1 -4.48956e-011 -6.23158e-026   
     length 0.721303   
     axis 3.97628e-014 -90 -90   XYZ
    dof rx rz
    limits (-90.0 90.0)
           (-45.0 45.0)
  end
  begin
     id 29
     name rfingers
     direction -1 -4.4899e-011 -1.24632e-025   
     length 0.581533   
     axis 7.95256e-014 -90 -90   XYZ
    dof rx
    limits (0.0 90.0)
  end
  begin
     id 30
     name rthumb
     direction -0.707107 -6.34911e-011 0.707107   
     length 0.834968   
     axis -90 -45 -2.85299e-015   XYZ
    dof rx rz
    limits (-45.0 45.0)
           (-45.0 45.0)
  end
:hierarchy
  begin
    root lhipjoint rhipjoint lowerback
    lhipjoint lfemur
    lfemur ltibia
    ltibia lfoot
    lfoot ltoes
    rhipjoint rfemur
    rfemur rtibia
    rtibia rfoot
    rfoot rtoes
    lowerback upperback
    upperback thorax
    thorax lowerneck lclavicle rclavicle
    lowerneck upperneck
    upperneck head
    lclavicle lhumerus
    lhumerus lradius
    lradius lwrist
    lwrist lhand lthumb
    lhand lfingers
    rclavicle rhumerus
    rhumerus rradius
    rradius rwrist
    rwrist rhand rthumb
    rhand rfingers
  end

#!OML:ASF I:\salsa\salsa 7_09\Patient 1\Session 1\dancerfemale.ASF
:FULLY-SPECIFIED
:DEGREES
971
root -17.572 15.8471 5.09658 72.484 79.7282 -1009.69
lowerback 12.0815 -3.19655 3.66899
upperback -2.07302 -4.44985 -12.0451
thorax -10.5437 -2.76115 -14.9985
lowerneck -7.84075 -0.530811 3.25609
upperneck 7.6386 -2.10257 15.5396
head 3.74774 -0.0098508 4.13256
rclavicle 1.36167e-014 4.45278e-014
rhumerus -34.4513 -3.4812 -80.6278
rradius 69.9794
rwrist 14.6065
rhand -4.93498 266.992
rfingers 7.12502
rthumb 20.8559 64.1095
lclavicle 1.36167e-014 4.45278e-014
lhumerus -1.22362 12.323 57.4557
lradius 99.9596
lwrist 5.53535
lhand -16.2604 -322.801
lfingers 7.12502
lthumb 9.94896 786.944
rfemur -28.1859 -8.44051 11.4916
rtibia 69.5479
rfoot -6.74063 -9.61706
rtoes -33.6162
lfemur -6.65859 9.47915 -36.4573
ltibia 23.431
lfoot -21.7054 -0.422729
ltoes -8.52496
972
root -17.5968 15.8573 5.10232 62.0716 79.5577 -1020.33
lowerback 12.0551 -2.98742 4.19255
upperback -2.48692 -4.12726 -11.839
thorax -10.9298 -2.68467 -15.1779
lowerneck -7.96545 -0.0337528 3.65071
upperneck 7.93374 -1.4925 15.0687
head 3.81192 0.297648 3.9593
rclavicle -2.61899e-014 -8.42847e-014
rhumerus -33.9491 -3.02557 -80.1218
rradius 69.9547
rwrist 14.6155
rhand -5.56206 265.69
rfingers 7.12502
rthumb 20.2533 65.3458
lclavicle -2.61899e-014 -8.42847e-014
lhumerus -2.69589 12.7248 57.6598
lradius 100.352
lwrist 5.73357
lhand -16.4257 -322.989
lfingers 7.12502
lthumb 9.78949 786.763
rfemur -26.3554 -9.00611 11.9513
rtibia 67.687
rfoot -7.42676 -8.30033
rtoes -35.6071
lfemur -7.59945 9.27573 -35.9594
ltibia 24.5123
lfoot -22.0147 1.40235
ltoes -7.86487
973
root -17.6136 15.8705 5.11339 49.978 79.1824 -1032.69
lowerback 12.0206 -2.65218 5.03897
upperback -2.86657 -3.57023 -11.5174
thorax -11.2103 -2.50998 -15.472
lowerneck -8.06964 0.376943 4.15864
upperneck 8.01199 -0.970551 14.4199
head 3.8157 0.53851 3.70466
rclavicle 2.01766e-014 1.65389e-013
rhumerus -33.5401 -2.66862 -79.884
rradius 69.87
rwrist 14.5575
rhand -6.04911 264.589
rfingers 7.12502
rthumb 19.7851 66.3978
lclavicle 2.01766e-014 1.65389e-013
lhumerus -4.11126 13.2909 57.8321
lradius 100.927
lwrist 5.77547
lhand -16.6558 -322.966
lfingers 7.12502
lthumb 9.56748 786.797
rfemur -24.4337 -9.46376 12.8435
rtibia 65.288
rfoot -8.6623 -7.41137
rtoes -37.0552
lfemur -8.60108 8.92501 -35.0174
ltibia 25.8398
lfoot -22.3301 3.68276
ltoes -7.72719
974
root -17.6263 15.877 5.12167 38.692 78.3168 -1044.46
lowerback 11.8237 -2.24166 6.01329
upperback -3.3034 -2.88219 -11.1442
thorax -11.4132 -2.28006 -15.8127
lowerneck -8.1537 0.765765 4.49873
upperneck 8.05119 -0.461389 13.8662
head 3.81095 0.769061 3.50654
rclavicle 2.47487e-014 -7.63333e-014
rhumerus -33.3024 -2.34937 -79.8704
rradius 69.7166
rwrist 14.4917
rhand -6.16918 264.055
rfingers 7.12502
rthumb 19.6697 66.9203
lclavicle 2.47487e-014 -7.63333e-014
lhumerus -5.6178 13.9401 57.905
lradius 101.665
lwrist 5.70871
lhand -17.0613 -322.733
lfingers 7.12502
lthumb 9.17615 787.047
rfemur -22.7159 -10.133 13.7949
rtibia 62.5036
rfoot -10.6521 -6.73461
rtoes -36.3868
lfemur -10.0125 8.81244 -33.991
ltibia 27.6579
lfoot -22.7871 6.08213
ltoes -9.66725
975
root -17.6404 15.8757 5.13569 29.0081 76.9423 -1054.75
lowerback 11.6035 -1.69396 6.91355
upperback -3.78206 -2.00723 -10.7221
thorax -11.5665 -1.94991 -16.0805
lowerneck -8.18364 1.134 4.7266
upperneck 8.07293 0.0357794 13.364
head 3.7963 0.989866 3.34165
rclavicle 1.75924e-014 -2.70347e-014
rhumerus -33.2358 -2.17308 -79.9711
rradius 69.4738
rwrist 14.332
rhand -5.70984 264.019
rfingers 7.12502
rthumb 20.1113 67.002
lclavicle 1.75924e-014 -2.70347e-014
lhumerus -7.11986 14.5877 57.9612
lradius 102.435
lwrist 5.78294
lhand -17.3605 -322.774
lfingers 7.12502
lthumb 8.88752 787.019
rfemur -21.196 -11.0156 14.7704
rtibia 59.4215
rfoot -13.7197 -6.7313
rtoes -37.0057
lfemur -11.6549 9.15581 -32.8761
ltibia 29.6977
lfoot -23.1787 8.29067
ltoes -12.8143
